<?xml version="1.0" encoding="utf-8"?>
<!-- Generator: Adobe Illustrator 24.1.3, SVG Export Plug-In . SVG Version: 6.00 Build 0)  -->
<svg version="1.1" id="Capa_1" xmlns="http://www.w3.org/2000/svg" xmlns:xlink="http://www.w3.org/1999/xlink" x="0px" y="0px"
	 viewBox="0 0 395.6 403.3" style="enable-background:new 0 0 395.6 403.3;" xml:space="preserve">
<style type="text/css">
	.st0{fill:#34B1B5;}
</style>
<g>
	<path class="st0" d="M1027.5-290.8c-11.2,0-20.3,9.1-20.3,20.3s9.1,20.3,20.3,20.3c11.2,0,20.3-9.1,20.3-20.3
		S1038.7-290.8,1027.5-290.8z"/>
	<path class="st0" d="M1026.7-437.2c-106.2,0-192.4,86.1-192.4,192.4s86.1,192.4,192.4,192.4c106.2,0,192.4-86.1,192.4-192.4
		S1132.9-437.2,1026.7-437.2z M1042.8-145.5c-8,9.4-22.5,9.4-30.5,0c-24.4-28.8-69.7-86.7-69.7-121c0-46.9,38-84.9,84.9-84.9
		c46.9,0,84.9,38,84.9,84.9C1112.4-232.2,1067.2-174.3,1042.8-145.5z"/>
</g>
<path class="st0" d="M202,5.7c-83.4,0-151.1,67.6-151.1,151.1c0,60.9,80.5,164,124,215.3c14.2,16.7,40,16.7,54.2,0
	c43.5-51.2,124-154.3,124-215.3C353.1,73.3,285.4,5.7,202,5.7z M202,185.7c-19.9,0-36.1-16.2-36.1-36.1c0-19.9,16.2-36.1,36.1-36.1
	c19.9,0,36.1,16.2,36.1,36.1C238.1,169.5,221.9,185.7,202,185.7z"/>
</svg>
