<?xml version="1.0" encoding="utf-8"?>
<!-- Generator: Adobe Illustrator 24.1.3, SVG Export Plug-In . SVG Version: 6.00 Build 0)  -->
<svg version="1.1" id="Capa_1" xmlns="http://www.w3.org/2000/svg" xmlns:xlink="http://www.w3.org/1999/xlink" x="0px" y="0px"
	 viewBox="0 0 395.6 403.3" style="enable-background:new 0 0 395.6 403.3;" xml:space="preserve">
<style type="text/css">
	.st0{fill:#34B1B5;}
	.st1{fill-rule:evenodd;clip-rule:evenodd;fill:#34B1B5;}
</style>
<g>
	<path class="st0" d="M196.3-290.8c-11.2,0-20.3,9.1-20.3,20.3s9.1,20.3,20.3,20.3c11.2,0,20.3-9.1,20.3-20.3
		S207.5-290.8,196.3-290.8z"/>
	<path class="st0" d="M195.5-437.2C89.3-437.2,3.1-351.1,3.1-244.9S89.3-52.5,195.5-52.5c106.2,0,192.4-86.1,192.4-192.4
		S301.7-437.2,195.5-437.2z M211.6-145.5c-8,9.4-22.5,9.4-30.5,0c-24.4-28.8-69.7-86.7-69.7-121c0-46.9,38-84.9,84.9-84.9
		c46.9,0,84.9,38,84.9,84.9C281.2-232.2,236-174.3,211.6-145.5z"/>
</g>
<path class="st0" d="M-629.2,5.7c-83.4,0-151.1,67.6-151.1,151.1c0,60.9,80.5,164,124,215.3c14.2,16.7,40,16.7,54.2,0
	c43.5-51.2,124-154.3,124-215.3C-478.1,73.3-545.8,5.7-629.2,5.7z M-629.2,185.7c-19.9,0-36.1-16.2-36.1-36.1
	c0-19.9,16.2-36.1,36.1-36.1c19.9,0,36.1,16.2,36.1,36.1C-593.1,169.5-609.3,185.7-629.2,185.7z"/>
<g>
	<path class="st0" d="M-407.3,380.5l26.9-100.5c-15.2-27.5-23.3-58.3-23.3-89.6c0-102.3,83.2-185.5,185.5-185.5
		c102.3,0,185.5,83.2,185.5,185.5c0,102.3-83.2,185.5-185.5,185.5c-30.7,0-61-7.8-88.2-22.5L-407.3,380.5z M-301.3,315.8l6.4,3.8
		c23.3,13.9,49.9,21.3,76.8,21.3c82.9,0,150.4-67.5,150.4-150.4c0-82.9-67.5-150.4-150.4-150.4c-82.9,0-150.4,67.5-150.4,150.4
		c0,27.4,7.6,54.4,22,78l3.9,6.4l-15,56.1L-301.3,315.8z"/>
	<path class="st1" d="M-149.1,216.2c-7.6-4.6-17.6-9.7-26.6-6c-6.9,2.8-11.3,13.6-15.8,19.1c-2.3,2.8-5,3.3-8.6,1.9
		c-25.9-10.3-45.7-27.6-60-51.4c-2.4-3.7-2-6.6,0.9-10.1c4.3-5.1,9.7-10.9,10.9-17.7c1.2-6.8-2-14.9-4.9-21
		c-3.6-7.8-7.7-18.9-15.5-23.3c-7.2-4.1-16.6-1.8-23,3.4c-11,9-16.4,23.1-16.2,37c0,4,0.5,7.9,1.5,11.7c2.2,9.2,6.5,17.8,11.3,26
		c3.6,6.2,7.5,12.1,11.8,17.9c13.9,18.8,31.1,35.2,51,47.4c10,6.1,20.7,11.5,31.8,15.1c12.5,4.1,23.6,8.4,37.1,5.9
		c14.1-2.7,28-11.4,33.6-25c1.7-4,2.5-8.5,1.6-12.8C-130.1,225.7-142,220.4-149.1,216.2z"/>
</g>
<g>
	<path class="st0" d="M374.4,93.4c-0.5,0.7-0.9,1.3-1.4,2L249.2,235.8c-13.3,15.1-32.4,23.7-52.5,23.7c-20.1,0-39.2-8.6-52.5-23.7
		L18.9,93.7c-2.2,5.2-3.4,10.9-3.4,16.8v161c0,41.6,33.7,75.2,75.2,75.2h212c41.6,0,75.2-33.7,75.2-75.2v-161
		C378,104.4,376.7,98.7,374.4,93.4z"/>
	<path class="st0" d="M172.4,211c6.2,7.1,14.9,11,24.3,11c9.4,0,18-3.9,24.3-11L344.7,70.5c0.4-0.5,1-0.9,1.4-1.3
		c-3.5-0.9-7.2-1.5-11-1.5H58.2c-3.7,0-7.3,0.5-10.8,1.4L172.4,211z"/>
</g>
</svg>
