<?xml version="1.0" encoding="utf-8"?>
<!-- Generator: Adobe Illustrator 24.1.3, SVG Export Plug-In . SVG Version: 6.00 Build 0)  -->
<svg version="1.1" id="Capa_1" xmlns="http://www.w3.org/2000/svg" xmlns:xlink="http://www.w3.org/1999/xlink" x="0px" y="0px"
	 viewBox="0 0 395.6 403.3" style="enable-background:new 0 0 395.6 403.3;" xml:space="preserve">
<style type="text/css">
	.st0{fill:#34B1B5;}
	.st1{fill-rule:evenodd;clip-rule:evenodd;fill:#34B1B5;}
</style>
<g>
	<path class="st0" d="M216,15.6c-85.7,0-155.4,69.7-155.4,155.4c0,57.2,62.7,143.1,115.2,205c10,11.8,24.7,18.6,40.2,18.6
		c15.5,0,30.2-6.8,40.2-18.6c52.6-62,115.2-147.8,115.2-205C371.4,85.4,301.7,15.6,216,15.6z M224,348.8c-2.7,3.2-6.2,3.7-8,3.7
		c-1.8,0-5.3-0.5-8-3.7c-65.9-77.6-105.2-144.1-105.2-177.7c0-62.4,50.8-113.2,113.2-113.2c62.4,0,113.2,50.8,113.2,113.2
		C329.2,204.7,289.9,271.1,224,348.8z"/>
	<circle class="st0" cx="216" cy="164.6" r="32.1"/>
</g>
</svg>
