<?xml version="1.0" encoding="utf-8"?>
<!-- Generator: Adobe Illustrator 24.1.3, SVG Export Plug-In . SVG Version: 6.00 Build 0)  -->
<svg version="1.1" id="Capa_1" xmlns="http://www.w3.org/2000/svg" xmlns:xlink="http://www.w3.org/1999/xlink" x="0px" y="0px"
	 viewBox="0 0 395.6 403.3" style="enable-background:new 0 0 395.6 403.3;" xml:space="preserve">
<style type="text/css">
	.st0{fill:#34B1B5;}
	.st1{fill-rule:evenodd;clip-rule:evenodd;fill:#34B1B5;}
</style>
<g>
	<path class="st0" d="M611.9-290.8c-11.2,0-20.3,9.1-20.3,20.3s9.1,20.3,20.3,20.3c11.2,0,20.3-9.1,20.3-20.3
		S623.1-290.8,611.9-290.8z"/>
	<path class="st0" d="M611.1-437.2c-106.2,0-192.4,86.1-192.4,192.4S504.9-52.5,611.1-52.5c106.2,0,192.4-86.1,192.4-192.4
		S717.3-437.2,611.1-437.2z M627.2-145.5c-8,9.4-22.5,9.4-30.5,0c-24.4-28.8-69.7-86.7-69.7-121c0-46.9,38-84.9,84.9-84.9
		c46.9,0,84.9,38,84.9,84.9C696.8-232.2,651.6-174.3,627.2-145.5z"/>
</g>
<path class="st0" d="M-213.6,5.7c-83.4,0-151.1,67.6-151.1,151.1c0,60.9,80.5,164,124,215.3c14.2,16.7,40,16.7,54.2,0
	c43.5-51.2,124-154.3,124-215.3C-62.5,73.3-130.2,5.7-213.6,5.7z M-213.6,185.7c-19.9,0-36.1-16.2-36.1-36.1
	c0-19.9,16.2-36.1,36.1-36.1c19.9,0,36.1,16.2,36.1,36.1C-177.5,169.5-193.7,185.7-213.6,185.7z"/>
<g>
	<path class="st0" d="M8.3,380.5L35.3,280C20,252.5,12,221.7,12,190.4C12,88.1,95.2,4.9,197.5,4.9C299.8,4.9,383,88.1,383,190.4
		c0,102.3-83.2,185.5-185.5,185.5c-30.7,0-61-7.8-88.2-22.5L8.3,380.5z M114.3,315.8l6.4,3.8c23.3,13.9,49.9,21.3,76.8,21.3
		c82.9,0,150.4-67.5,150.4-150.4c0-82.9-67.5-150.4-150.4-150.4c-82.9,0-150.4,67.5-150.4,150.4c0,27.4,7.6,54.4,22,78l3.9,6.4
		l-15,56.1L114.3,315.8z"/>
	<path class="st1" d="M266.5,216.2c-7.6-4.6-17.6-9.7-26.6-6c-6.9,2.8-11.3,13.6-15.8,19.1c-2.3,2.8-5,3.3-8.6,1.9
		c-25.9-10.3-45.7-27.6-60-51.4c-2.4-3.7-2-6.6,0.9-10.1c4.3-5.1,9.7-10.9,10.9-17.7c1.2-6.8-2-14.9-4.9-21
		c-3.6-7.8-7.7-18.9-15.5-23.3c-7.2-4.1-16.6-1.8-23,3.4c-11,9-16.4,23.1-16.2,37c0,4,0.5,7.9,1.5,11.7c2.2,9.2,6.5,17.8,11.3,26
		c3.6,6.2,7.5,12.1,11.8,17.9c13.9,18.8,31.1,35.2,51,47.4c10,6.1,20.7,11.5,31.8,15.1c12.5,4.1,23.6,8.4,37.1,5.9
		c14.1-2.7,28-11.4,33.6-25c1.7-4,2.5-8.5,1.6-12.8C285.5,225.7,273.6,220.4,266.5,216.2z"/>
</g>
</svg>
